# xmcd
#
# Track frame offsets:
# 150
# 11532
# 20979
# 33823
# 47010
# 63369
# 74635
# 90917
# 95620
# 109708
# 121260
# 132890
# 143621
# 155083
# 167908
#
# Disc length: 2364 seconds
#
# Revision: 0
# Processed by: cddbd v1.4PL0 Copyright (c) Steve Scherf et al.
# Submitted via: Audion 3.0.2 (http://www.panic.com/audion/)
#
DISCID=c7093a0f
DTITLE=The Graves - Love*Love*Love
DYEAR=1900
DGENRE=
TTITLE0=the (209)
TTITLE1=Modern Love is a Killer
TTITLE2=I am so Tired
TTITLE3=Because I'm Supposed To
TTITLE4=Curse a Thing
TTITLE5=Evil Is You
TTITLE6=Calm Me Down
TTITLE7=Kylodica
TTITLE8=O'connor Pass
TTITLE9=Suburban Girls
TTITLE10=Show Girls Love
TTITLE11=How to Fake an Indian Summer
TTITLE12=Dark Hair is Cool too
TTITLE13=Albertson's
TTITLE14=the (209) again
EXTD=
EXTT0=
EXTT1=
EXTT2=
EXTT3=
EXTT4=
EXTT5=
EXTT6=
EXTT7=
EXTT8=
EXTT9=
EXTT10=
EXTT11=
EXTT12=
EXTT13=
EXTT14=
PLAYORDER=
